<svg width="512" height="512" version="1.1" id="SVGRoot" xmlns:xlink="http://www.w3.org/1999/xlink" xmlns="http://www.w3.org/2000/svg"><defs id="defs298"><linearGradient id="linearGradient7497"><stop style="stop-color:#000;stop-opacity:1" offset="0" id="stop7493"/><stop style="stop-color:#4b4b4b;stop-opacity:1" offset="1" id="stop7495"/></linearGradient><linearGradient id="linearGradient7442"><stop style="stop-color:#fff;stop-opacity:1" offset="0" id="stop7438"/><stop style="stop-color:#fff;stop-opacity:0" offset="1" id="stop7440"/></linearGradient><linearGradient id="linearGradient6453"><stop style="stop-color:#212121;stop-opacity:1" offset="0" id="stop6449"/><stop style="stop-color:#4c4c4c;stop-opacity:1" offset="1" id="stop6451"/></linearGradient><linearGradient id="linearGradient6129"><stop style="stop-color:#9f9f9f;stop-opacity:1" offset="0" id="stop6125"/><stop style="stop-color:#3c3c3c;stop-opacity:1" offset=".051" id="stop6382"/><stop style="stop-color:#353535;stop-opacity:1" offset=".133" id="stop6386"/><stop style="stop-color:#636363;stop-opacity:1" offset=".236" id="stop6384"/><stop style="stop-color:#313131;stop-opacity:1" offset=".402" id="stop6388"/><stop style="stop-color:#2c2c2c;stop-opacity:1" offset=".872" id="stop6392"/><stop style="stop-color:#404040;stop-opacity:1" offset=".937" id="stop6390"/><stop style="stop-color:#ababab;stop-opacity:1" offset="1" id="stop6127"/></linearGradient><linearGradient id="linearGradient3666"><stop style="stop-color:#fff;stop-opacity:1" offset="0" id="stop3662"/><stop style="stop-color:#fff;stop-opacity:0" offset="1" id="stop3664"/></linearGradient><linearGradient id="linearGradient2808"><stop style="stop-color:#fff;stop-opacity:1" offset="0" id="stop2804"/><stop style="stop-color:#fbfbfb;stop-opacity:1" offset=".074" id="stop2812"/><stop style="stop-color:#f1f1f1;stop-opacity:1" offset=".24" id="stop2814"/><stop style="stop-color:#e1e1e1;stop-opacity:1" offset="1" id="stop2806"/></linearGradient><linearGradient id="linearGradient579"><stop style="stop-color:#e7e7e7;stop-opacity:1" offset="0" id="stop575"/><stop style="stop-color:#adadad;stop-opacity:1" offset=".052" id="stop1226"/><stop style="stop-color:#b8b8b8;stop-opacity:1" offset=".172" id="stop1230"/><stop style="stop-color:#cbcbcb;stop-opacity:1" offset=".22" id="stop1228"/><stop style="stop-color:#c7c7c7;stop-opacity:1" offset=".331" id="stop1232"/><stop style="stop-color:#b7b7b7;stop-opacity:1" offset=".832" id="stop1236"/><stop style="stop-color:#ababab;stop-opacity:1" offset=".919" id="stop1234"/><stop style="stop-color:#d1d1d1;stop-opacity:1" offset="1" id="stop577"/></linearGradient><linearGradient xlink:href="#linearGradient579" id="linearGradient1224" x1="227.559" y1="416" x2="476.974" y2="416" gradientUnits="userSpaceOnUse"/><linearGradient xlink:href="#linearGradient2808" id="linearGradient2810" x1="345.338" y1="324" x2="373.051" y2="372" gradientUnits="userSpaceOnUse"/><linearGradient xlink:href="#linearGradient6129" id="linearGradient6131" x1="284.027" y1="312.464" x2="414.62" y2="312.464" gradientUnits="userSpaceOnUse"/><linearGradient xlink:href="#linearGradient6453" id="linearGradient6455" x1="302.037" y1="323" x2="400.764" y2="268" gradientUnits="userSpaceOnUse"/><linearGradient xlink:href="#linearGradient7497" id="linearGradient7499" x1="342.567" y1="342.048" x2="342.567" y2="367.697" gradientUnits="userSpaceOnUse"/><radialGradient xlink:href="#linearGradient3666" id="radialGradient3670" cx="282.758" cy="478.032" fx="282.758" fy="478.032" r="104.173" gradientTransform="matrix(1 0 0 .45496 0 204.37)" gradientUnits="userSpaceOnUse"/><radialGradient xlink:href="#linearGradient7442" id="radialGradient7444" cx="314.162" cy="360.406" fx="314.162" fy="360.406" r="55.426" gradientTransform="matrix(1 0 0 .45073 0 167.517)" gradientUnits="userSpaceOnUse"/></defs><g id="layer1"><g id="g2356"><path style="fill:none;fill-rule:evenodd;stroke:none;stroke-width:2px;paint-order:stroke markers fill" id="rect2325" d="M0 0h512v512H0z"/><path style="fill:#000;fill-opacity:1;fill-rule:evenodd;stroke-width:2px;paint-order:stroke markers fill" id="path622" transform="translate(477.702 64)" d="m-193.99-48 166.277 96A55.426 55.426 60 0 1 0 96v192a55.426 55.426 120 0 1-27.713 48l-166.277 96a55.426 55.426 0 0 1-55.425 0l-166.277-96a55.426 55.426 60 0 1-27.713-48V96a55.426 55.426 120 0 1 27.713-48l166.277-96a55.426 55.426 0 0 1 55.425 0z"/><g id="g7483" transform="translate(-26.985 8.144)"><use x="0" y="0" xlink:href="#g4417" id="use4465" transform="translate(-138.564 -80)"/><use x="0" y="0" xlink:href="#g4417" id="use4457" transform="translate(-69.282 -40)"/><g id="g4417"><path style="fill:url(#linearGradient2810);fill-opacity:1;fill-rule:evenodd;stroke:none;stroke-width:16px;stroke-linecap:butt;stroke-linejoin:miter;stroke-dasharray:none;paint-order:stroke markers fill" d="M476.974 320v32a13.856 13.856 120 0 1-6.928 12L289.913 468a13.856 13.856 0 0 1-13.857 0l-41.569-24a13.856 13.856 60 0 1-6.928-12v-32a13.856 13.856 120 0 1 6.928-12L414.62 284a13.856 13.856 0 0 1 13.857 0l41.569 24a13.856 13.856 60 0 1 6.928 12z" id="path7316"/><path style="fill:url(#linearGradient1224);fill-rule:evenodd;stroke-width:16px;paint-order:stroke markers fill" d="m237.951 386-3.464 2a13.856 13.856 120 0 0-6.928 12v32a13.856 13.856 60 0 0 6.928 12l41.57 24a13.856 13.856 180 0 0 13.856 0l180.133-104a13.856 13.856 120 0 0 6.928-12v-32a13.856 13.856 60 0 0-6.928-12 4.619 4.619 90 0 1 0 8L289.913 420a13.856 13.856 0 0 1-13.857 0l-38.105-22-3.464-2a4.619 4.619 90 0 1 0-8z" id="path359"/><path style="fill:url(#radialGradient3670);fill-rule:nonzero;stroke:none;stroke-width:2px;stroke-dasharray:none;paint-order:stroke markers fill" d="M241.415 400c0 .004 17.814 10.89 34.235 20.704 2.511 1.58 5.14 2.152 7.335 2.152 2.194 0 4.823-.571 7.334-2.153A95389.947 95389.947 0 0 0 449.26 328c-.008 0-83.41 47.553-159.754 91.297-2.335 1.216-4.634 1.56-6.522 1.56-1.89 0-4.188-.344-6.522-1.56A4494.352 4494.352 0 0 0 241.415 400z" id="path3605"/></g><use x="0" y="0" xlink:href="#g7450" id="use7452" transform="translate(-69.282 -40)"/><g id="g7450"><path style="fill:url(#linearGradient7499);fill-rule:evenodd;stroke:none;stroke-width:2px;stroke-dasharray:none;paint-order:stroke markers fill" d="m286.449 334-2.598 1.5a2.887 2.887 90 0 0 0 5l1.732 1a1.732 1.732 60 0 1 .866 1.5v15l12.99-7.5a1.732 1.732 180 0 1 1.732 0l5.196 3a8.66 8.66 180 0 0 8.66 0L430.208 287a3.464 3.464 0 0 1 3.464 0l-8.66-5-114.315 66Z" id="path4675"/><path style="fill:url(#linearGradient6455);fill-opacity:1;fill-rule:evenodd;stroke:none;stroke-width:16px;stroke-linecap:butt;stroke-linejoin:miter;stroke-dasharray:none;paint-order:stroke markers fill" d="M428.477 280v-8a6.928 6.928 60 0 0-3.464-6l-20.785-12a6.928 6.928 180 0 0-6.928 0l-103.923 60a10.729 10.729 129.553 0 0-4.774 5.78l-4.31 12.44a4.843 4.843 69.553 0 0 2.156 5.78l20.784 12a6.928 6.928 180 0 0 6.928 0l110.852-64a6.928 6.928 120 0 0 3.464-6z" id="path9518"/><path style="fill:url(#linearGradient6131);fill-rule:evenodd;stroke:none;stroke-width:2px;stroke-dasharray:none;paint-order:stroke markers fill" d="m288.603 319.78-4.31 12.44a4.843 4.843 69.553 0 0 2.156 5.78l20.784 12a6.928 6.928 0 0 0 6.928 0l110.852-64a6.928 6.928 120 0 0 3.464-6v-8a6.928 6.928 60 0 0-3.464-6 2.31 2.31 90 0 1 0 4l-107.334 58.096a7.153 7.153.787 0 1-6.982-.096l-17.32-10a2.31 2.31 90 0 1 0-4 10.729 10.729 129.553 0 0-4.774 5.78z" id="path5771"/><path style="fill:url(#radialGradient7444);fill-rule:nonzero;stroke:none;stroke-width:2px;stroke-dasharray:none;paint-order:stroke markers fill" d="M296.84 320c.004 0 6.972 4.626 13.452 8.703 1.3.882 2.694 1.24 3.87 1.26 1.176.02 2.581-.293 3.91-1.133a29666.075 29666.075 0 0 0 89.62-48.83c-.007 0-47.212 24.645-90.386 47.398-1.15.486-2.231.58-3.111.565-.88-.014-1.958-.143-3.092-.666-6.77-3.573-14.26-7.295-14.262-7.297z" id="path7246"/></g></g></g><g id="g2321"><path style="fill:#000;fill-rule:evenodd;stroke-width:2px;paint-order:stroke markers fill" id="rect2316" d="M640 0h512v512H640z"/><circle style="fill:none;fill-rule:evenodd;stroke-width:2px;paint-order:stroke markers fill;stroke:none" id="path815" cx="896" cy="256" r="204.8"/><use x="0" y="0" xlink:href="#g7483" id="use956" transform="matrix(.8 0 0 .8 691.2 -.115)"/></g></g></svg>