<?xml version="1.0" encoding="UTF-8" standalone="no"?>
<!-- Created with Inkscape (http://www.inkscape.org/) -->

<svg
   width="512.0px"
   height="512.0px"
   viewBox="0 0 512.0 512.0"
   version="1.1"
   id="SVGRoot"
   sodipodi:docname="favicon.svg"
   inkscape:version="1.2.1 (9c6d41e410, 2022-07-14)"
   xmlns:inkscape="http://www.inkscape.org/namespaces/inkscape"
   xmlns:sodipodi="http://sodipodi.sourceforge.net/DTD/sodipodi-0.dtd"
   xmlns:xlink="http://www.w3.org/1999/xlink"
   xmlns="http://www.w3.org/2000/svg"
   xmlns:svg="http://www.w3.org/2000/svg">
  <sodipodi:namedview
     id="namedview303"
     pagecolor="#ffffff"
     bordercolor="#999999"
     borderopacity="1"
     inkscape:showpageshadow="0"
     inkscape:pageopacity="0"
     inkscape:pagecheckerboard="0"
     inkscape:deskcolor="#d1d1d1"
     inkscape:document-units="px"
     showgrid="false"
     inkscape:zoom="1"
     inkscape:cx="256"
     inkscape:cy="256"
     inkscape:window-width="1920"
     inkscape:window-height="1017"
     inkscape:window-x="-8"
     inkscape:window-y="-8"
     inkscape:window-maximized="1"
     inkscape:current-layer="layer1"
     showguides="true">
    <inkscape:grid
       type="axonomgrid"
       id="grid6221"
       units="px"
       spacingy="2"
       empspacing="16"
       originx="-7.25" />
  </sodipodi:namedview>
  <defs
     id="defs298">
    <linearGradient
       inkscape:collect="always"
       id="linearGradient7497">
      <stop
         style="stop-color:#000000;stop-opacity:1;"
         offset="0"
         id="stop7493" />
      <stop
         style="stop-color:#4b4b4b;stop-opacity:1;"
         offset="1"
         id="stop7495" />
    </linearGradient>
    <linearGradient
       inkscape:collect="always"
       id="linearGradient7442">
      <stop
         style="stop-color:#ffffff;stop-opacity:1;"
         offset="0"
         id="stop7438" />
      <stop
         style="stop-color:#ffffff;stop-opacity:0;"
         offset="1"
         id="stop7440" />
    </linearGradient>
    <inkscape:path-effect
       effect="powerstroke"
       id="path-effect7436"
       is_visible="true"
       lpeversion="1"
       offset_points="1.1540419e-07,-1.0660583e-06 | 1.5,1 | 3,1.7992795e-06"
       not_jump="false"
       sort_points="true"
       interpolator_type="CentripetalCatmullRom"
       interpolator_beta="0.2"
       start_linecap_type="zerowidth"
       linejoin_type="round"
       miter_limit="4"
       scale_width="1"
       end_linecap_type="zerowidth" />
    <inkscape:path-effect
       effect="fillet_chamfer"
       id="path-effect7434"
       is_visible="true"
       lpeversion="1"
       nodesatellites_param="F,0,0,1,0,0,0,1 @ F,0,0,1,0,4,0,1 @ F,0,0,1,0,4,0,1"
       unit="px"
       method="auto"
       mode="F"
       radius="4"
       chamfer_steps="1"
       flexible="false"
       use_knot_distance="true"
       apply_no_radius="true"
       apply_with_radius="true"
       only_selected="false"
       hide_knots="false" />
    <linearGradient
       inkscape:collect="always"
       id="linearGradient6453">
      <stop
         style="stop-color:#212121;stop-opacity:1;"
         offset="0"
         id="stop6449" />
      <stop
         style="stop-color:#4c4c4c;stop-opacity:1;"
         offset="1"
         id="stop6451" />
    </linearGradient>
    <inkscape:path-effect
       effect="fillet_chamfer"
       id="path-effect6135"
       is_visible="true"
       lpeversion="1"
       nodesatellites_param="F,0,0,1,0,0,0,1 @ F,0,0,1,0,5,0,1 @ F,0,0,1,0,1,0,1 @ F,0,0,1,0,0,0,1 @ F,0,0,1,0,1,0,1 @ F,0,0,1,0,5,0,1 @ F,0,0,1,0,0,0,1 @ F,0,0,1,0,1.9999993,0,1 @ F,0,0,1,0,0,0,1 @ F,0,0,1,0,0,0,1 @ F,0,0,1,0,0,0,1"
       unit="px"
       method="auto"
       mode="F"
       radius="1"
       chamfer_steps="1"
       flexible="false"
       use_knot_distance="true"
       apply_no_radius="true"
       apply_with_radius="true"
       only_selected="true"
       hide_knots="false" />
    <linearGradient
       inkscape:collect="always"
       id="linearGradient6129">
      <stop
         style="stop-color:#9f9f9f;stop-opacity:1;"
         offset="0"
         id="stop6125" />
      <stop
         style="stop-color:#3c3c3c;stop-opacity:1;"
         offset="0.05135581"
         id="stop6382" />
      <stop
         style="stop-color:#353535;stop-opacity:1;"
         offset="0.13306364"
         id="stop6386" />
      <stop
         style="stop-color:#636363;stop-opacity:1;"
         offset="0.23594047"
         id="stop6384" />
      <stop
         style="stop-color:#313131;stop-opacity:1;"
         offset="0.40243846"
         id="stop6388" />
      <stop
         style="stop-color:#2c2c2c;stop-opacity:1;"
         offset="0.87215239"
         id="stop6392" />
      <stop
         style="stop-color:#404040;stop-opacity:1;"
         offset="0.93712717"
         id="stop6390" />
      <stop
         style="stop-color:#ababab;stop-opacity:1;"
         offset="1"
         id="stop6127" />
    </linearGradient>
    <inkscape:path-effect
       effect="fillet_chamfer"
       id="path-effect5859"
       is_visible="true"
       lpeversion="1"
       nodesatellites_param="F,0,0,1,0,4,0,1 @ F,0,0,1,0,4,0,1 @ F,0,0,1,0,4,0,1 @ F,0,0,1,0,4,0,1 @ F,0,1,1,0,4,0,1 @ F,0,0,1,0,0,0,1 @ F,0,1,1,0,4,0,1 @ F,0,0,1,0,0,0,1 @ F,0,0,1,0,4,0,1 @ F,0,0,1,0,0,0,1 @ F,0,0,1,0,4,0,1 @ F,0,0,1,0,0,0,1"
       unit="px"
       method="auto"
       mode="F"
       radius="4"
       chamfer_steps="1"
       flexible="false"
       use_knot_distance="true"
       apply_no_radius="true"
       apply_with_radius="true"
       only_selected="true"
       hide_knots="false" />
    <inkscape:path-effect
       effect="fillet_chamfer"
       id="path-effect4545"
       is_visible="true"
       lpeversion="1"
       nodesatellites_param="F,0,1,1,0,4,0,1 @ F,0,0,1,0,4,0,1 @ F,0,0,1,0,4,0,1 @ F,0,0,1,0,4,0,1 @ F,0,0,1,0,4,0,1 @ F,0,0,1,0,4,0,1"
       unit="px"
       method="auto"
       mode="F"
       radius="4"
       chamfer_steps="1"
       flexible="false"
       use_knot_distance="true"
       apply_no_radius="true"
       apply_with_radius="true"
       only_selected="true"
       hide_knots="false" />
    <inkscape:path-effect
       effect="powerstroke"
       id="path-effect4412"
       is_visible="true"
       lpeversion="1"
       offset_points="0,1.8550431e-06 | 1.5,1 | 3,1.5990918e-06"
       not_jump="false"
       sort_points="true"
       interpolator_type="CentripetalCatmullRom"
       interpolator_beta="0.2"
       start_linecap_type="zerowidth"
       linejoin_type="round"
       miter_limit="4"
       scale_width="1"
       end_linecap_type="zerowidth" />
    <linearGradient
       inkscape:collect="always"
       id="linearGradient3666">
      <stop
         style="stop-color:#ffffff;stop-opacity:1;"
         offset="0"
         id="stop3662" />
      <stop
         style="stop-color:#ffffff;stop-opacity:0;"
         offset="1"
         id="stop3664" />
    </linearGradient>
    <inkscape:path-effect
       effect="fillet_chamfer"
       id="path-effect3607"
       is_visible="true"
       lpeversion="1"
       nodesatellites_param="F,0,0,1,0,0,0,1 @ F,0,0,1,0,8,0,1 @ F,0,0,1,0,8,0,1"
       unit="px"
       method="auto"
       mode="F"
       radius="8"
       chamfer_steps="1"
       flexible="false"
       use_knot_distance="true"
       apply_no_radius="true"
       apply_with_radius="true"
       only_selected="false"
       hide_knots="false" />
    <linearGradient
       inkscape:collect="always"
       id="linearGradient2808">
      <stop
         style="stop-color:#ffffff;stop-opacity:1;"
         offset="0"
         id="stop2804" />
      <stop
         style="stop-color:#fbfbfb;stop-opacity:1;"
         offset="0.07431223"
         id="stop2812" />
      <stop
         style="stop-color:#f1f1f1;stop-opacity:1;"
         offset="0.24031921"
         id="stop2814" />
      <stop
         style="stop-color:#e1e1e1;stop-opacity:1;"
         offset="1"
         id="stop2806" />
    </linearGradient>
    <linearGradient
       inkscape:collect="always"
       id="linearGradient579">
      <stop
         style="stop-color:#e7e7e7;stop-opacity:1;"
         offset="0"
         id="stop575" />
      <stop
         style="stop-color:#adadad;stop-opacity:1;"
         offset="0.05158073"
         id="stop1226" />
      <stop
         style="stop-color:#b8b8b8;stop-opacity:1;"
         offset="0.19566834"
         id="stop1230" />
      <stop
         style="stop-color:#cbcbcb;stop-opacity:1;"
         offset="0.24264708"
         id="stop1228" />
      <stop
         style="stop-color:#c7c7c7;stop-opacity:1;"
         offset="0.29411763"
         id="stop1232" />
      <stop
         style="stop-color:#b7b7b7;stop-opacity:1;"
         offset="0.86507541"
         id="stop1236" />
      <stop
         style="stop-color:#ababab;stop-opacity:1;"
         offset="0.94912654"
         id="stop1234" />
      <stop
         style="stop-color:#d1d1d1;stop-opacity:1;"
         offset="1"
         id="stop577" />
    </linearGradient>
    <inkscape:path-effect
       effect="fillet_chamfer"
       id="path-effect513"
       is_visible="true"
       lpeversion="1"
       nodesatellites_param="F,0,0,1,0,0,0,1 @ F,0,1,1,0,8,0,1 @ F,0,0,1,0,8,0,1 @ F,0,0,1,0,8,0,1 @ F,0,0,1,0,8,0,1 @ F,0,1,1,0,8,0,1 @ F,0,0,1,0,0,0,1 @ F,0,1,1,0,8,0,1 @ F,0,0,1,0,0,0,1 @ F,0,0,1,0,8,0,1 @ F,0,0,1,0,0,0,1 @ F,0,1,1,0,8,0,1"
       unit="px"
       method="auto"
       mode="F"
       radius="8"
       chamfer_steps="1"
       flexible="false"
       use_knot_distance="true"
       apply_no_radius="true"
       apply_with_radius="true"
       only_selected="true"
       hide_knots="false" />
    <inkscape:path-effect
       effect="fillet_chamfer"
       id="path-effect20728"
       is_visible="true"
       lpeversion="1"
       nodesatellites_param="F,0,0,1,0,8,0,1 @ F,0,0,1,0,8,0,1 @ F,0,0,1,0,8,0,1 @ F,0,0,1,0,8,0,1 @ F,0,0,1,0,8,0,1 @ F,0,0,1,0,8,0,1"
       unit="px"
       method="auto"
       mode="F"
       radius="8"
       chamfer_steps="1"
       flexible="false"
       use_knot_distance="true"
       apply_no_radius="true"
       apply_with_radius="true"
       only_selected="false"
       hide_knots="false" />
    <linearGradient
       inkscape:collect="always"
       xlink:href="#linearGradient579"
       id="linearGradient1224"
       x1="227.5589"
       y1="416"
       x2="463.11783"
       y2="416"
       gradientUnits="userSpaceOnUse" />
    <linearGradient
       inkscape:collect="always"
       xlink:href="#linearGradient2808"
       id="linearGradient2810"
       x1="345.33835"
       y1="324"
       x2="373.05118"
       y2="372"
       gradientUnits="userSpaceOnUse" />
    <radialGradient
       inkscape:collect="always"
       xlink:href="#linearGradient3666"
       id="radialGradient3670"
       cx="282.75781"
       cy="478.0322"
       fx="282.75781"
       fy="478.0322"
       r="104.17304"
       gradientTransform="matrix(1,0,0,0.45495989,0,204.36908)"
       gradientUnits="userSpaceOnUse" />
    <linearGradient
       inkscape:collect="always"
       xlink:href="#linearGradient6129"
       id="linearGradient6131"
       x1="284.02704"
       y1="312.4641"
       x2="414.6204"
       y2="312.4641"
       gradientUnits="userSpaceOnUse" />
    <linearGradient
       inkscape:collect="always"
       xlink:href="#linearGradient6453"
       id="linearGradient6455"
       x1="302.03711"
       y1="323"
       x2="400.76398"
       y2="268"
       gradientUnits="userSpaceOnUse" />
    <radialGradient
       inkscape:collect="always"
       xlink:href="#linearGradient7442"
       id="radialGradient7444"
       cx="314.16205"
       cy="360.40576"
       fx="314.16205"
       fy="360.40576"
       r="55.425625"
       gradientTransform="matrix(1,0,0,0.45072994,0,167.51747)"
       gradientUnits="userSpaceOnUse" />
    <linearGradient
       inkscape:collect="always"
       xlink:href="#linearGradient7497"
       id="linearGradient7499"
       x1="342.56656"
       y1="342.04788"
       x2="342.56656"
       y2="367.69748"
       gradientUnits="userSpaceOnUse" />
  </defs>
  <g
     inkscape:label="Layer 1"
     inkscape:groupmode="layer"
     id="layer1">
    <rect
       style="fill:#000000;fill-rule:evenodd;stroke-width:16;paint-order:stroke markers fill"
       id="rect1290"
       width="512"
       height="512"
       x="0"
       y="0" />
    <g
       id="g7483"
       transform="translate(-20.056335,-17.843853)">
      <use
         x="0"
         y="0"
         xlink:href="#g4417"
         id="use4465"
         transform="translate(-138.56405,-80)" />
      <use
         x="0"
         y="0"
         xlink:href="#g4417"
         id="use4457"
         transform="translate(-69.282038,-40)" />
      <g
         id="g4417">
        <path
           style="fill:url(#linearGradient2810);fill-opacity:1;fill-rule:evenodd;stroke:none;stroke-width:16;stroke-linecap:butt;stroke-linejoin:miter;stroke-dasharray:none;paint-order:stroke markers fill"
           d="m 463.11782,328 0,32 a 13.856406,13.856406 120 0 1 -6.9282,12 l -166.2769,96 a 13.856406,13.856406 2.4102791e-6 0 1 -13.8564,0 L 234.4871,444 a 13.856407,13.856407 60.000001 0 1 -6.9282,-12 v -32 a 13.856406,13.856406 120 0 1 6.9282,-12 L 400.764,292 a 13.856406,13.856406 2.4102791e-6 0 1 13.8564,0 l 41.56922,24 a 13.856407,13.856407 60.000001 0 1 6.9282,12 z"
           id="path7316"
           sodipodi:nodetypes="ccccccc"
           inkscape:path-effect="#path-effect20728"
           inkscape:original-d="m 463.11782,320 v 48 L 282.98452,472 227.5589,440 V 392 L 407.6922,288 Z" />
        <path
           style="fill:url(#linearGradient1224);fill-rule:evenodd;stroke-width:16;paint-order:stroke markers fill"
           d="m 237.95121,386 -3.46411,2 a 13.856403,13.856403 120.00001 0 0 -6.9282,12 v 32 a 13.856406,13.856406 59.999999 0 0 6.9282,12 l 41.56923,24 a 13.856407,13.856407 180 0 0 13.8564,0 l 166.27689,-96 a 13.856406,13.856406 120 0 0 6.9282,-12 l 0,-32 a 13.856407,13.856407 60.000012 0 0 -6.9282,-12 4.6188027,4.6188027 90 0 1 0,8 l -166.27689,96 a 13.856407,13.856407 9.3656544e-7 0 1 -13.8564,0 l -38.10512,-22 -3.46411,-2 a 4.6187999,4.6187999 90 0 1 0,-8 z"
           id="path359"
           sodipodi:nodetypes="ccccccccccccc"
           inkscape:path-effect="#path-effect513"
           inkscape:original-d="m 237.95121,386 -10.39231,6 v 48 l 55.42563,32 180.13329,-104 v -48 l -6.9282,-4 6.9282,4 -6.9282,4 -173.20509,100 -45.03332,-26 -10.39231,-6 z" />
        <path
           style="fill:url(#radialGradient3670);fill-rule:nonzero;stroke:none;stroke-width:2;stroke-dasharray:none;paint-order:stroke markers fill"
           d="m 241.41532,400 c 0,0 0,0 0,0 -2.5e-4,0.004 17.81411,10.8898 34.23483,20.70353 2.51133,1.58139 5.14031,2.15288 7.33439,2.15288 2.19408,0 4.82306,-0.57152 7.33436,-2.15293 C 366.37379,376.45985 449.25642,328.00675 449.26141,328 c 0,0 0,0 0,0 -0.008,9.4e-4 -83.41126,47.55286 -159.75482,91.29652 -2.33411,1.21652 -4.6332,1.55989 -6.52205,1.55989 -1.88886,0 -4.18794,-0.34339 -6.52202,-1.55994 -16.70929,-9.3139 -35.04383,-19.2987 -35.0472,-19.29647 z"
           id="path3605"
           sodipodi:nodetypes="ccc"
           inkscape:path-effect="#path-effect3607;#path-effect4412"
           inkscape:original-d="m 241.41532,400 41.56922,24 166.27687,-96" />
      </g>
      <use
         x="0"
         y="0"
         xlink:href="#g7450"
         id="use7452"
         transform="translate(-69.282037,-40)" />
      <g
         id="g7450">
        <path
           style="fill:url(#linearGradient7499);fill-rule:evenodd;stroke:none;stroke-width:2;stroke-dasharray:none;paint-order:stroke markers fill"
           d="m 286.44864,334 -2.59808,1.5 a 2.8867485,2.8867485 90 0 0 0,5 l 1.73205,1 a 1.73205,1.73205 59.999988 0 1 0.86603,1.5 v 15 l 12.99037,-7.5 a 1.7320508,1.7320508 179.99999 0 1 1.73206,0 l 5.19615,3 a 8.6602562,8.6602562 179.99999 0 0 8.66026,0 l 101.32497,-58.5 0,0 a 3.4640988,3.4640988 0 0 1 3.4641,0 l 0,0 -8.66025,-5 -100.45895,58 z"
           id="path4675"
           sodipodi:nodetypes="cccccccccccc"
           inkscape:path-effect="#path-effect6135"
           inkscape:original-d="m 286.44864,334 -6.92821,4 6.92821,4 v 16 l 13.8564,-8 10.39231,6 105.6551,-61 1.73205,-1 1.73205,1 -8.66025,-5 -100.45895,58 z" />
        <path
           style="fill:url(#linearGradient6455);fill-opacity:1;fill-rule:evenodd;stroke:none;stroke-width:16;stroke-linecap:butt;stroke-linejoin:miter;stroke-dasharray:none;paint-order:stroke markers fill"
           d="m 414.6204,288 v -8 a 6.9282023,6.9282023 59.999997 0 0 -3.4641,-6 l -20.78462,-12 a 6.9282043,6.9282043 180 0 0 -6.9282,0 l -90.06665,52 a 10.728896,10.728896 129.55329 0 0 -4.77341,5.77965 l -4.30957,12.44069 a 4.8432026,4.8432026 69.553287 0 0 2.15479,5.77965 l 20.78462,12 a 6.9282044,6.9282044 180 0 0 6.9282,0 L 411.1563,294 a 6.9282029,6.9282029 120 0 0 3.4641,-6 z"
           id="path9518"
           sodipodi:nodetypes="ccccccc"
           inkscape:path-effect="#path-effect4545"
           inkscape:original-d="m 414.6204,292 v -16 l -27.71282,-16 -96.99485,56 -6.92819,19.99999 27.71282,16 z" />
        <path
           style="fill:url(#linearGradient6131);fill-rule:evenodd;stroke:none;stroke-width:2;stroke-dasharray:none;paint-order:stroke markers fill"
           d="m 288.60343,319.77964 -4.30958,12.44072 A 4.8432019,4.8432019 69.5533 0 0 286.44864,338 l 20.78461,12 a 6.9282029,6.9282029 1.4920773e-6 0 0 6.9282,0 l 96.99485,-56 a 6.9282032,6.9282032 120 0 0 3.4641,-6 v -8 a 6.9282036,6.9282036 60.000012 0 0 -3.4641,-6 2.3094013,2.3094013 90 0 1 0,4 l -93.46951,50.11003 A 7.1871357,7.1871357 0.9018769 0 1 310.69735,328 l -17.32051,-10 a 2.3094022,2.3094022 89.999857 0 1 -1e-5,-4 10.728911,10.728911 129.55323 0 0 -4.7734,5.77964 z"
           id="path5771"
           sodipodi:nodetypes="ccccccccccccc"
           inkscape:path-effect="#path-effect5859"
           inkscape:original-d="m 289.91274,316 -6.9282,20 27.71281,16 103.92305,-60 v -16 l -3.4641,-2 3.4641,2 -3.4641,2 -96.99485,52 -20.78461,-12 -3.4641,-2 3.46409,-2 z" />
        <path
           style="fill:url(#radialGradient7444);fill-rule:nonzero;stroke:none;stroke-width:2;stroke-dasharray:none;paint-order:stroke markers fill"
           d="m 296.84094,320 c 0,0 0,0 0,0 0.003,8.7e-4 6.97059,4.6264 13.45075,8.70262 1.30004,0.88283 2.69468,1.24132 3.87036,1.26053 1.1756,0.0192 2.58128,-0.29312 3.90986,-1.13272 42.90189,-23.26225 89.616,-48.82519 89.62028,-48.83043 0,0 0,0 0,0 -0.007,6.5e-4 -47.21173,24.64532 -90.38604,47.398 -1.1497,0.48604 -2.23143,0.57979 -3.11143,0.56541 -0.88002,-0.0144 -1.95819,-0.14303 -3.09171,-0.66603 -6.77019,-3.57387 -14.25972,-7.29504 -14.26207,-7.29738 z"
           id="path7246"
           inkscape:path-effect="#path-effect7434;#path-effect7436"
           inkscape:original-d="m 296.84094,320 17.32051,10 93.53074,-50" />
      </g>
    </g>
  </g>
</svg>
